# xmcd CD database file
#
# Track frame offsets:
#	150
#	14243
#	33298
#	43628
#	57439
#	75166
#	90943
#	102932
#	121633
#	135755
#	158507
#	178012
#	194487
#	216219
#	229320
#
# Disc length: 3212 seconds
#
# Revision: 0
# Processed by: cddbd v1.5.2PL0 Copyright (c) Steve Scherf et al.
# Submitted via: CDex 1.70beta2
#
DISCID=b50c8a0f
DTITLE=Various Artist - Hope Street 1507
DYEAR=2007
DGENRE=Country
TTITLE0=Susie Luchsinger/Slow Dance More
TTITLE1=Wayne Wipf/Granny Did
TTITLE2=Nannette Vaughan/God's Riverside
TTITLE3=David L. Cook/Sum It All Up
TTITLE4=Andrea Esquivel/Fight The Good Fight Of Faith
TTITLE5=Gary R. Smith/Coming Home
TTITLE6=Caroline Keller/Work In Progress
TTITLE7=Elijah Gold/Divine Wine
TTITLE8=Becky Braun/End Times
TTITLE9=Danny Ray Harris/No Greater Love
TTITLE10=Royel Clark/There's A Better Way
TTITLE11=Grace Jacobsen/Country Music In The Sky
TTITLE12=Joe Frank Reynolds/Legacy
TTITLE13=Denny Yeary/Overcome
TTITLE14=Billy Hale/Tribute To The US Marines
EXTD=YEAR: 2007
EXTT0=
EXTT1=
EXTT2=
EXTT3=
EXTT4=
EXTT5=
EXTT6=
EXTT7=
EXTT8=
EXTT9=
EXTT10=
EXTT11=
EXTT12=
EXTT13=
EXTT14=
PLAYORDER=
